<?xml version="1.0" encoding="iso-8859-1"?>
<!-- Generator: Adobe Illustrator 19.0.0, SVG Export Plug-In . SVG Version: 6.00 Build 0)  -->
<svg version="1.1" id="Layer_1" xmlns="http://www.w3.org/2000/svg" xmlns:xlink="http://www.w3.org/1999/xlink" x="0px" y="0px"
	 viewBox="0 0 512 512" style="enable-background:new 0 0 512 512;" xml:space="preserve">
<path style="fill:#ACDFEA;" d="M0,228.781v244.896c0,15.191,12.314,27.507,27.507,27.507h456.987
	c15.191,0,27.507-12.316,27.507-27.507V228.781c0-4.822-1.196-9.505-3.4-13.668H3.4C1.196,219.277,0,223.958,0,228.781z"/>
<g>
	<path style="fill:#145587;" d="M501.504,206.359L275.541,17.896c-11.318-9.439-27.766-9.439-39.084,0L10.496,206.359
		c-2.948,2.458-5.34,5.441-7.095,8.754H508.6C506.844,211.801,504.452,208.817,501.504,206.359z"/>
	<path style="opacity:0.2;fill:#145587;enable-background:new    ;" d="M385.785,139.399H126.215
		c-9.349,0-16.927,7.578-16.927,16.927v58.787h293.424v-58.787C402.713,146.978,395.133,139.399,385.785,139.399z"/>
	<path style="opacity:0.15;fill:#145587;enable-background:new    ;" d="M508.6,215.113H3.4c-0.31,0.585-0.595,1.184-0.864,1.787
		L234.056,410c12.709,10.6,31.178,10.6,43.888,0l231.52-193.098C509.195,216.297,508.91,215.699,508.6,215.113z"/>
</g>
<path style="fill:#89BBE4;" d="M4.26,488.374c3.175,5.011,7.922,8.925,13.551,11.046l180.539-119.2l-13.38-11.16L4.26,488.374z
	 M327.03,369.06l-13.38,11.16l180.539,119.2c5.629-2.121,10.376-6.035,13.55-11.046L327.03,369.06z"/>
<path style="fill:#FFFFFF;" d="M385.785,155.713H126.215c-9.349,0-16.927,7.578-16.927,16.927v133.298l124.769,104.063
	c12.709,10.6,31.178,10.6,43.888,0l124.768-104.063V172.64C402.713,163.291,395.133,155.713,385.785,155.713z"/>
<g style="opacity:0.1;">
	<path style="fill:#145587;" d="M277.944,389.138c-12.709,10.599-31.178,10.599-43.888,0L109.287,285.073v20.865l124.769,104.064
		c12.709,10.599,31.178,10.599,43.888,0l124.768-104.064v-20.865L277.944,389.138z"/>
</g>
<g>
	<path style="fill:#F9C526;" d="M334.975,223.456H177.019c-4.607,0-8.342-3.734-8.342-8.342s3.735-8.342,8.342-8.342h157.956
		c4.607,0,8.342,3.734,8.342,8.342S339.582,223.456,334.975,223.456z"/>
	<path style="fill:#F9C526;" d="M334.975,275.422H177.019c-4.607,0-8.342-3.734-8.342-8.342s3.735-8.342,8.342-8.342h157.956
		c4.607,0,8.342,3.734,8.342,8.342S339.582,275.422,334.975,275.422z"/>
	<path style="fill:#F9C526;" d="M334.975,327.389H177.019c-4.607,0-8.342-3.735-8.342-8.342c0-4.608,3.735-8.342,8.342-8.342
		h157.956c4.607,0,8.342,3.734,8.342,8.342C343.317,323.654,339.582,327.389,334.975,327.389z"/>
</g>
<path style="opacity:0.1;fill:#145587;enable-background:new    ;" d="M392.791,115.687c-25.842,7.856-44.652,31.865-44.652,60.275
	c0,34.792,28.205,62.997,62.997,62.997c32.351,0,58.992-24.39,62.573-55.782L392.791,115.687z"/>
<circle style="fill:#FB7686;" cx="411.135" cy="155.858" r="62.997"/>
<g>
</g>
<g>
</g>
<g>
</g>
<g>
</g>
<g>
</g>
<g>
</g>
<g>
</g>
<g>
</g>
<g>
</g>
<g>
</g>
<g>
</g>
<g>
</g>
<g>
</g>
<g>
</g>
<g>
</g>
</svg>
